<mxfile host="Electron" modified="2024-06-04T11:21:23.082Z" agent="Mozilla/5.0 (Windows NT 10.0; Win64; x64) AppleWebKit/537.36 (KHTML, like Gecko) draw.io/24.1.0 Chrome/120.0.6099.109 Electron/28.1.0 Safari/537.36" etag="mKdfCDRNSOQLAbHKPqgs" version="24.1.0" type="device">
  <diagram name="Страница — 1" id="XeG3HPt33idPtNKIWBLb">
    <mxGraphModel dx="1036" dy="479" grid="0" gridSize="10" guides="1" tooltips="1" connect="1" arrows="1" fold="1" page="0" pageScale="1" pageWidth="827" pageHeight="1169" math="0" shadow="0">
      <root>
        <mxCell id="0" />
        <mxCell id="1" parent="0" />
        <mxCell id="ZRWn4y6C10XTtTnE6OVw-14" style="edgeStyle=orthogonalEdgeStyle;rounded=0;orthogonalLoop=1;jettySize=auto;html=1;exitX=1;exitY=0.25;exitDx=0;exitDy=0;fontFamily=Times New Roman;" parent="1" source="ZRWn4y6C10XTtTnE6OVw-1" edge="1">
          <mxGeometry relative="1" as="geometry">
            <mxPoint x="640" y="352.3809523809524" as="targetPoint" />
          </mxGeometry>
        </mxCell>
        <mxCell id="ZRWn4y6C10XTtTnE6OVw-1" value="&lt;font&gt;Веб сайт &quot;GreenCrop&quot;&lt;/font&gt;" style="whiteSpace=wrap;html=1;aspect=fixed;fontFamily=Times New Roman;" parent="1" vertex="1">
          <mxGeometry x="370" y="320" width="130" height="130" as="geometry" />
        </mxCell>
        <mxCell id="ZRWn4y6C10XTtTnE6OVw-2" value="" style="endArrow=classic;html=1;rounded=0;entryX=0;entryY=0.25;entryDx=0;entryDy=0;fontFamily=Times New Roman;" parent="1" edge="1">
          <mxGeometry width="50" height="50" relative="1" as="geometry">
            <mxPoint x="164" y="372" as="sourcePoint" />
            <mxPoint x="370" y="371.5" as="targetPoint" />
          </mxGeometry>
        </mxCell>
        <mxCell id="ZRWn4y6C10XTtTnE6OVw-4" value="Данные по теплицам" style="text;html=1;align=center;verticalAlign=middle;resizable=0;points=[];autosize=1;strokeColor=none;fillColor=none;fontFamily=Times New Roman;" parent="1" vertex="1">
          <mxGeometry x="213" y="341" width="125" height="26" as="geometry" />
        </mxCell>
        <mxCell id="ZRWn4y6C10XTtTnE6OVw-5" value="" style="endArrow=classic;html=1;rounded=0;entryX=0;entryY=0.25;entryDx=0;entryDy=0;fontFamily=Times New Roman;" parent="1" edge="1">
          <mxGeometry width="50" height="50" relative="1" as="geometry">
            <mxPoint x="164" y="435" as="sourcePoint" />
            <mxPoint x="370" y="435" as="targetPoint" />
          </mxGeometry>
        </mxCell>
        <mxCell id="ZRWn4y6C10XTtTnE6OVw-6" value="&lt;font&gt;Сценарий управления&lt;/font&gt;&lt;div&gt;&lt;font&gt;&amp;nbsp;теплицей&lt;/font&gt;&lt;/div&gt;" style="text;html=1;align=center;verticalAlign=middle;resizable=0;points=[];autosize=1;strokeColor=none;fillColor=none;fontFamily=Times New Roman;" parent="1" vertex="1">
          <mxGeometry x="210" y="395" width="130" height="41" as="geometry" />
        </mxCell>
        <mxCell id="ZRWn4y6C10XTtTnE6OVw-9" value="" style="endArrow=classic;html=1;rounded=0;entryX=0.126;entryY=-0.022;entryDx=0;entryDy=0;entryPerimeter=0;fontFamily=Times New Roman;" parent="1" edge="1">
          <mxGeometry width="50" height="50" relative="1" as="geometry">
            <mxPoint x="389.6" y="204.86" as="sourcePoint" />
            <mxPoint x="389.9799999999999" y="320" as="targetPoint" />
          </mxGeometry>
        </mxCell>
        <mxCell id="ZRWn4y6C10XTtTnE6OVw-10" value="Должностные&amp;nbsp;&lt;div&gt;инструкции&lt;/div&gt;" style="text;html=1;align=center;verticalAlign=middle;resizable=0;points=[];autosize=1;strokeColor=none;fillColor=none;horizontal=0;fontFamily=Times New Roman;" parent="1" vertex="1">
          <mxGeometry x="346.5" y="210" width="47" height="86" as="geometry" />
        </mxCell>
        <mxCell id="ZRWn4y6C10XTtTnE6OVw-11" value="" style="endArrow=classic;html=1;rounded=0;entryX=0.126;entryY=-0.022;entryDx=0;entryDy=0;entryPerimeter=0;fontFamily=Times New Roman;" parent="1" edge="1">
          <mxGeometry width="50" height="50" relative="1" as="geometry">
            <mxPoint x="434.9" y="205" as="sourcePoint" />
            <mxPoint x="434.9" y="320" as="targetPoint" />
          </mxGeometry>
        </mxCell>
        <mxCell id="ZRWn4y6C10XTtTnE6OVw-13" value="&lt;font&gt;Технический&amp;nbsp;&lt;/font&gt;&lt;div&gt;&lt;font&gt;регламент&lt;/font&gt;&lt;/div&gt;" style="text;html=1;align=center;verticalAlign=middle;resizable=0;points=[];autosize=1;strokeColor=none;fillColor=none;horizontal=0;fontFamily=Times New Roman;" parent="1" vertex="1">
          <mxGeometry x="393.5" y="213" width="50" height="80" as="geometry" />
        </mxCell>
        <mxCell id="ZRWn4y6C10XTtTnE6OVw-15" value="Аналитика" style="text;html=1;align=center;verticalAlign=middle;resizable=0;points=[];autosize=1;strokeColor=none;fillColor=none;fontFamily=Times New Roman;" parent="1" vertex="1">
          <mxGeometry x="523" y="322" width="74" height="26" as="geometry" />
        </mxCell>
        <mxCell id="ZRWn4y6C10XTtTnE6OVw-16" style="edgeStyle=orthogonalEdgeStyle;rounded=0;orthogonalLoop=1;jettySize=auto;html=1;exitX=1;exitY=0.25;exitDx=0;exitDy=0;fontFamily=Times New Roman;" parent="1" edge="1">
          <mxGeometry relative="1" as="geometry">
            <mxPoint x="640" y="398.0009523809524" as="targetPoint" />
            <mxPoint x="500" y="398.62" as="sourcePoint" />
          </mxGeometry>
        </mxCell>
        <mxCell id="ZRWn4y6C10XTtTnE6OVw-17" value="&lt;font&gt;Графики с данными&amp;nbsp;&lt;/font&gt;&lt;div&gt;&lt;font&gt;датчиков&lt;/font&gt;&lt;/div&gt;" style="text;html=1;align=center;verticalAlign=middle;resizable=0;points=[];autosize=1;strokeColor=none;fillColor=none;fontFamily=Times New Roman;" parent="1" vertex="1">
          <mxGeometry x="505" y="363" width="130" height="40" as="geometry" />
        </mxCell>
        <mxCell id="ZRWn4y6C10XTtTnE6OVw-18" value="" style="endArrow=classic;html=1;rounded=0;entryX=0.25;entryY=1;entryDx=0;entryDy=0;fontFamily=Times New Roman;" parent="1" edge="1">
          <mxGeometry width="50" height="50" relative="1" as="geometry">
            <mxPoint x="390" y="560" as="sourcePoint" />
            <mxPoint x="389.5" y="450" as="targetPoint" />
          </mxGeometry>
        </mxCell>
        <mxCell id="ZRWn4y6C10XTtTnE6OVw-19" value="Персонал" style="text;html=1;align=center;verticalAlign=middle;resizable=0;points=[];autosize=1;strokeColor=none;fillColor=none;horizontal=0;fontFamily=Times New Roman;" parent="1" vertex="1">
          <mxGeometry x="350" y="475" width="40" height="60" as="geometry" />
        </mxCell>
        <mxCell id="ZRWn4y6C10XTtTnE6OVw-20" value="" style="endArrow=classic;html=1;rounded=0;entryX=0.25;entryY=1;entryDx=0;entryDy=0;fontFamily=Times New Roman;" parent="1" edge="1">
          <mxGeometry width="50" height="50" relative="1" as="geometry">
            <mxPoint x="434.82" y="560" as="sourcePoint" />
            <mxPoint x="434.82" y="450" as="targetPoint" />
          </mxGeometry>
        </mxCell>
        <mxCell id="ZRWn4y6C10XTtTnE6OVw-21" value="Оборудование" style="text;html=1;align=center;verticalAlign=middle;resizable=0;points=[];autosize=1;strokeColor=none;fillColor=none;horizontal=0;fontFamily=Times New Roman;" parent="1" vertex="1">
          <mxGeometry x="394" y="465" width="40" height="90" as="geometry" />
        </mxCell>
        <mxCell id="ZRWn4y6C10XTtTnE6OVw-22" value="" style="endArrow=classic;html=1;rounded=0;entryX=0.25;entryY=1;entryDx=0;entryDy=0;fontFamily=Times New Roman;" parent="1" edge="1">
          <mxGeometry width="50" height="50" relative="1" as="geometry">
            <mxPoint x="490" y="560" as="sourcePoint" />
            <mxPoint x="490" y="450" as="targetPoint" />
          </mxGeometry>
        </mxCell>
        <mxCell id="ZRWn4y6C10XTtTnE6OVw-23" value="Прогоаммное&amp;nbsp;&lt;div&gt;обеспечение&lt;/div&gt;" style="text;html=1;align=center;verticalAlign=middle;resizable=0;points=[];autosize=1;strokeColor=none;fillColor=none;horizontal=0;fontFamily=Times New Roman;" parent="1" vertex="1">
          <mxGeometry x="445" y="465" width="50" height="90" as="geometry" />
        </mxCell>
        <mxCell id="KXXowu8qcIje8BYY4Gzq-1" value="Тех. карты растениеводства в защищенном грунте" style="text;whiteSpace=wrap;fontFamily=Times New Roman;horizontal=0;" parent="1" vertex="1">
          <mxGeometry x="450.88" y="154.48" width="44.12" height="160.52" as="geometry" />
        </mxCell>
        <mxCell id="KXXowu8qcIje8BYY4Gzq-2" value="" style="endArrow=classic;html=1;rounded=0;entryX=0.126;entryY=-0.022;entryDx=0;entryDy=0;entryPerimeter=0;fontFamily=Times New Roman;" parent="1" edge="1">
          <mxGeometry width="50" height="50" relative="1" as="geometry">
            <mxPoint x="492" y="205" as="sourcePoint" />
            <mxPoint x="492" y="320" as="targetPoint" />
          </mxGeometry>
        </mxCell>
        <mxCell id="SU2pvDUjkjAHwUrK8Oix-1" value="A0" style="text;html=1;align=center;verticalAlign=middle;resizable=0;points=[];autosize=1;strokeColor=none;fillColor=none;" vertex="1" parent="1">
          <mxGeometry x="467" y="424" width="33" height="26" as="geometry" />
        </mxCell>
      </root>
    </mxGraphModel>
  </diagram>
</mxfile>
